<svg width="454" height="621" viewBox="0 0 454 621" fill="none" xmlns="http://www.w3.org/2000/svg">
<path d="M424.597 321.94C419.099 309.614 411.516 297.476 400.425 283.456C372.462 248.266 363.931 169.795 363.836 169.042C363.457 165.278 360.803 162.173 357.295 161.044C353.693 159.915 349.807 160.95 347.247 163.773C313.881 201.127 327.91 258.805 335.493 281.857C337.579 288.161 339.854 295.594 341.464 303.121C353.787 363.998 329.994 391.567 324.402 397.118C318.999 398.624 315.302 397.871 311.889 394.201C300.135 381.311 296.248 339.064 301.746 284.021C302.885 272.824 302.6 262.756 300.988 253.347C289.393 185.693 246.879 142.297 236.056 127.077C206.291 83.0428 203.258 9.74598 203.163 9.08734C203.068 5.60598 201.078 2.50098 197.95 0.995525C194.916 -0.50993 191.219 -0.321747 188.376 1.65416C138.705 35.4328 142.97 116.821 149.89 162.267C151.502 172.806 154.63 183.532 160.033 197.081C179.276 245.538 156.241 308.108 156.052 308.673C155.862 309.237 155.672 309.708 155.578 310.272C152.639 325.703 147.71 334.924 142.212 334.924C141.643 334.924 141.075 334.83 140.411 334.642C133.681 333.231 130.174 326.08 130.079 319.87C129.7 239.61 49.2214 212.606 48.3683 212.324C44.7662 211.195 40.785 212.23 38.3204 215.146C35.761 218.063 35.2871 222.109 36.9933 225.496C37.9412 227.472 40.9746 236.129 38.8891 266.708C37.0881 294.183 32.0642 321.375 24.0069 347.438C4.85894 409.915 7.89227 469.098 8.08186 471.921C22.8058 632.164 253.06 660.243 389.713 569.963C404.69 560.084 416.918 548.793 425.923 536.373C476.354 466.746 446.684 372.184 424.597 321.94ZM74.3422 475.026C74.6266 480.201 70.6453 484.623 65.4318 484.905H64.863C59.8391 484.905 55.6682 481.047 55.3838 476.061C54.5307 462.323 54.7203 447.927 55.763 432.308C56.1422 427.133 60.6922 423.276 65.9057 423.557C71.1193 423.933 75.1005 428.45 74.7214 433.625C73.6777 448.492 73.4891 462.041 74.3422 475.026ZM78.986 391.661C78.4173 396.46 74.3412 399.941 69.6017 399.941C69.2225 399.941 68.8433 399.941 68.3694 399.847C63.2506 399.188 59.5537 394.578 60.1225 389.403L64.6725 353.084C65.336 348.003 69.9808 344.333 75.2891 344.898C80.5027 345.556 84.1996 350.261 83.536 355.436L78.986 391.661Z" fill="#3D3D3D"/>
<path d="M359.455 128.726C354.285 127.931 350.74 123.135 351.536 118.003C352.128 114.18 355.553 94.6093 364.847 84.7683C368.425 80.9737 374.415 80.7761 378.247 84.3412C382.065 87.8922 382.26 93.8472 378.677 97.6419C374.744 101.809 371.392 113.735 370.272 120.871C369.472 125.948 364.701 129.511 359.455 128.726Z" fill="#3D3D3D"/>
<path d="M13.8818 175.594C12.0675 168.597 7.5592 157.056 3.23196 153.289C-0.706636 149.861 -1.10002 143.916 2.35229 140.012C5.79607 136.098 11.7803 135.698 15.7283 139.139C25.9431 148.028 31.2799 167.173 32.2477 170.917C33.5435 175.948 30.4893 181.065 25.4255 182.361C20.2499 183.653 15.1719 180.541 13.8818 175.594Z" fill="#3D3D3D"/>
</svg>
